<svg width="40" height="33" viewBox="0 0 40 33" fill="none" xmlns="http://www.w3.org/2000/svg">
<path d="M0.484048 10.646C0.233815 9.40739 1.18077 8.25 2.44444 8.25H37.5556C38.8192 8.25 39.7662 9.40739 39.5159 10.646L35.324 31.396C35.1355 32.3291 34.3155 33 33.3636 33H6.63636C5.68446 33 4.86446 32.3291 4.67597 31.396L0.484048 10.646Z" fill="black"/>
<path d="M28.3334 8.25C28.3334 6.06196 27.4554 3.96354 25.8926 2.41637C24.3298 0.869194 22.2102 1.65192e-07 20.0001 0C17.7899 -1.65192e-07 15.6703 0.869193 14.1075 2.41637C12.5447 3.96354 11.6667 6.06196 11.6667 8.25H13.8855C13.8855 6.64453 14.5297 5.10481 15.6764 3.96957C16.8231 2.83434 18.3784 2.19656 20.0001 2.19657C21.6217 2.19657 23.177 2.83434 24.3237 3.96958C25.4704 5.10481 26.1146 6.64453 26.1146 8.25H28.3334Z" fill="black"/>
</svg>
